<svg id="SvgjsSvg1014" width="5000" height="3192" xmlns="http://www.w3.org/2000/svg" version="1.1" xmlns:xlink="http://www.w3.org/1999/xlink" xmlns:svgjs="http://svgjs.com/svgjs" viewBox="0 0 148.203125 94.625"><defs id="SvgjsDefs1015"></defs><g id="SvgjsG1017" transform="rotate(0 73.59375 16.6640625)"><svg width="105" viewBox="0 0 86.94119262695312 27.597564697265625" xmlns="http://www.w3.org/2000/svg" version="1.1" xmlns:xlink="http://www.w3.org/1999/xlink" xmlns:svgjs="http://svgjs.com/svgjs" preserveAspectRatio="none" height="33.328125" x="21.09375" y="0"><g><svg data-color="1" xmlns="http://www.w3.org/2000/svg" xmlns:xlink="http://www.w3.org/1999/xlink" version="1.1" x="0px" y="0px" viewBox="-266.4037170410156 491.2592468261719 86.94119262695312 27.597564697265625" style="enable-background:new -273 455 100 100;" xml:space="preserve" width="86.94119262695312" height="27.597564697265625" fill="#f49531"><g><path d="M-194.2,504.3c0.1-0.4,0.4-0.7,1.1-0.9c0.2-0.5,1.4-2.8,3.4-3.2c1.4-0.3,2.8,0.4,4.3,2l0.1,0.1l0.5-1.6   c0.5-3.7-3-5.8-4.9-7c-0.8-0.5-3-1.2-5.4-1.2c-1.5,0-3.1,0.3-4.4,1c-0.5,0.1-1.1,0.2-1.7,0.3l-8.4-1.6c-6.4-1.9-20.7-1.7-30.1,8.1   c-9.4,9.9-21.3,8.2-21.3,8.2s-9.9-0.1-2.9,4.2c7,4.3,18.3-4.3,22.2-1.5c0.1,4.9-2.9,6.3-2.9,6.3c2.8-0.8,3.4,0,3.5,0.4   c0,0.1,0,0.2,0,0.2c0,0,1.4-2.1,2.7,0c0,0,2-1.7,3.2,0c1.2,1.6-0.4-5.7-1.5-6.3c0.6,0.1,2.5,0.5,5,0.8c-0.1,0.5-0.3,1-0.6,1.3   c-0.5,0.8-1,1.1-1,1.1c2-0.8,2.5-0.2,2.7,0.1c0,0.1,0,0.2,0,0.2c0,0,0.9-1.7,2-0.2c0,0,0.8-0.8,1.6-0.7c0.3,0,0.6,0.2,0.8,0.5   c0.5,0.6,0.3-0.5-0.1-1.7c4.5,0.2,9.5-0.1,12.8-2c0,0,2.4,5.1,0.4,7.1c-2,2,3.4-2.2,3.8,0c0,0,1.7-1.5,3.6-0.2c0,0,0.6-2.1,2.5-2.1   s-8-2.7-3.9-5.1c4.1-2.4,3.9,3,3.8,3c-0.1,0,3.2-1.4,4.5,0.4c0,0,0.6-2.2,2.6-2c2,0.3-6.3-1.9-3.3-4.3c1.1-0.9,1.6-1.3,1.9-1.5   c2,0.9,3.9,1,3.9,1l2,0C-192.3,507.1-194.4,505.5-194.2,504.3z M-194.7,500.2C-194.6,500.2-194.6,500.1-194.7,500.2   c0.2-0.9-0.4-1.8-1.2-1.9c-0.8-0.2-1.7,0.4-1.8,1.2c-0.1,0.3,0,0.6,0.1,0.8c-0.9-0.3-1.8-1-2.1-2c0,0,4.3-2.1,5.4,0.4   C-194.1,499.4-194.3,499.9-194.7,500.2z M-180.9,507.6c-0.9-0.5-2.4-2.1-3.4-3.4l-1.5-1.6c-1.4-1.5-2.7-2.1-3.9-1.9   c-2,0.4-3.1,3-3.1,3l0,0.1l-0.1,0c-0.5,0.1-0.8,0.3-0.8,0.6c-0.1,0.7,1.4,2.1,2.5,2.8c0,0,2.5,1.5,3.7,2.2c3.5,1.2,6.5,0.4,6.5,0.4   C-177.6,508.9-180.9,507.6-180.9,507.6z M-184.5,507.2c-0.1,0-0.2-0.1-0.3-0.4c0-0.2,0-0.4,0.2-0.4c0.1,0,0.2,0.1,0.3,0.4   C-184.3,507-184.4,507.2-184.5,507.2z M-183.2,506.4c-0.1,0.1-0.3,0.1-0.4-0.1c-0.2-0.1-0.2-0.3-0.1-0.4c0.1-0.1,0.3-0.1,0.4,0.1   C-183.2,506.1-183.1,506.3-183.2,506.4z"></path></g></svg></g><defs id="SvgjsDefs1016"></defs></svg></g><g id="SvgjsG1019" transform="rotate(0 73.1015625 54.4765625)"><svg xmlns="http://www.w3.org/2000/svg" xmlns:xlink="http://www.w3.org/1999/xlink" width="140.390625" viewBox="-0.5400000214576721 12.739999771118164 140.39999389648438 43.30999755859375" overflow="visible" style="overflow: visible;" transform="" version="1.1" xmlns:svgjs="http://svgjs.com/svgjs" preserveAspectRatio="none" height="43.296875" x="2.90625" y="32.828125" fill="#000000" stroke="none"><path stroke="none" fill="#2c365d" d="M10.15 17.98L10.15 17.98L10.15 17.98Q9.61 17.98 9.18 18.52L9.18 18.52L9.18 33.21L16.25 33.21L16.25 34.51L13.55 35.86L9.18 35.86L9.18 46.01L9.18 46.01Q9.18 48.01 9.61 48.87L9.61 48.87L9.61 48.87Q10.04 49.73 11.39 49.73L11.39 49.73L11.39 51.41L0.32 56.05L-0.54 54.32L-0.54 54.32Q0.65 54.32 1.73 52.92L1.73 52.92L1.73 52.92Q2.70 51.57 2.70 48.82L2.70 48.82L2.70 17.71L2.70 17.71Q2.70 17.33 8.88 15.04L8.88 15.04L8.88 15.04Q15.07 12.74 15.98 12.74L15.98 12.74L15.98 12.74Q16.31 12.74 16.74 14.31L16.74 14.31L16.74 14.31Q17.17 15.88 17.74 18.09L17.74 18.09L17.74 18.09Q18.31 20.30 18.93 21.36L18.93 21.36L18.93 21.36Q19.55 22.41 21.28 22.41L21.28 22.41L21.28 23.49L21.28 23.49Q20.09 24.03 17.25 25.41L17.25 25.41L17.25 25.41Q14.42 26.78 14.20 26.78L14.20 26.78L14.20 26.78Q13.39 26.78 12.15 22.38L12.15 22.38L12.15 22.38Q10.91 17.98 10.15 17.98ZM38.39 30.67L38.39 30.67L38.39 45.95L38.39 45.95Q38.39 47.95 39.04 48.73L39.04 48.73L39.04 48.73Q39.69 49.52 41.04 49.84L41.04 49.84L41.04 51.03L35.15 54.32L35.15 54.32Q33.97 53.84 32.94 52.73L32.94 52.73L32.94 52.73Q31.91 51.62 31.91 50.71L31.91 50.71L25.16 54.32L25.16 54.32Q25.00 54.22 24.68 54.03L24.68 54.03L24.68 54.03Q24.35 53.84 23.57 53.22L23.57 53.22L23.57 53.22Q22.79 52.60 22.19 51.89L22.19 51.89L22.19 51.89Q20.57 50.11 20.57 47.84L20.57 47.84L20.57 38.99L20.57 38.99Q20.57 38.12 23.38 36.77L23.38 36.77L23.38 36.77Q26.19 35.42 29.00 34.56L29.00 34.56L31.86 33.64L31.86 33.64Q31.86 30.56 30.24 29.35L30.24 29.35L30.24 29.35Q28.62 28.13 23.98 28.13L23.98 28.13L23.98 26.51L23.98 26.51Q32.35 23.54 33.37 23.54L33.37 23.54L33.37 23.54Q35.15 23.54 36.77 25.87L36.77 25.87L36.77 25.87Q38.39 28.19 38.39 30.67ZM27.05 45.90L27.05 45.90Q27.05 47.30 27.89 48.20L27.89 48.20L27.89 48.20Q28.73 49.09 29.75 49.09L29.75 49.09L29.75 49.09Q30.78 49.09 31.91 48.28L31.91 48.28L31.91 36.07L31.91 36.07Q30.56 36.56 29.89 36.88L29.89 36.88L29.89 36.88Q29.21 37.21 28.46 37.91L28.46 37.91L28.46 37.91Q27.05 39.20 27.05 42.39L27.05 42.39L27.05 45.90ZM43.79 50.65L43.79 50.65L43.79 32.35L43.79 32.35Q43.79 30.56 43.04 29.27L43.04 29.27L43.04 29.27Q42.28 27.97 41.15 27.97L41.15 27.97L41.15 26.78L41.15 26.78Q41.53 26.73 47.03 23.49L47.03 23.49L47.03 23.49Q47.41 23.60 47.95 23.79L47.95 23.79L47.95 23.79Q48.49 23.98 49.38 24.84L49.38 24.84L49.38 24.84Q50.27 25.70 50.27 26.84L50.27 26.84L50.27 26.84Q50.60 26.68 52.11 25.81L52.11 25.81L52.11 25.81Q56.11 23.54 57.05 23.54L57.05 23.54L57.05 23.54Q58.00 23.54 59.16 24.52L59.16 24.52L59.16 24.52Q60.32 25.49 60.91 26.84L60.91 26.84L60.91 26.84Q61.02 26.78 63.13 25.70L63.13 25.70L63.13 25.70Q67.34 23.54 68.20 23.54L68.20 23.54L68.20 23.54Q69.93 23.54 71.44 25.81L71.44 25.81L71.44 25.81Q72.95 28.08 72.95 29.97L72.95 29.97L72.95 46.33L72.95 46.33Q72.95 49.30 75.60 49.84L75.60 49.84L75.60 51.03L69.71 54.32L69.71 54.32Q68.53 53.84 67.50 52.73L67.50 52.73L67.50 52.73Q66.47 51.62 66.47 50.65L66.47 50.65L66.47 34.72L66.47 34.72Q66.47 31.21 65.56 30.05L65.56 30.05L65.56 30.05Q64.64 28.89 63.18 28.89L63.18 28.89L61.61 29.21L61.61 46.33L61.61 46.33Q61.61 49.30 64.26 49.84L64.26 49.84L64.26 51.03L58.37 54.32L58.37 54.32Q57.19 53.84 56.16 52.73L56.16 52.73L56.16 52.73Q55.13 51.62 55.13 50.65L55.13 50.65L55.13 34.99L55.13 34.99Q55.13 28.78 52.16 28.78L52.16 28.78L50.27 29.11L50.27 46.33L50.27 46.33Q50.27 49.63 52.49 50.06L52.49 50.06L52.49 51.25L47.03 54.32L47.03 54.32Q45.85 53.84 44.82 52.73L44.82 52.73L44.82 52.73Q43.79 51.62 43.79 50.65ZM95.09 30.67L95.09 30.67L95.09 45.95L95.09 45.95Q95.09 47.95 95.74 48.73L95.74 48.73L95.74 48.73Q96.39 49.52 97.74 49.84L97.74 49.84L97.74 51.03L91.85 54.32L91.85 54.32Q90.67 53.84 89.64 52.73L89.64 52.73L89.64 52.73Q88.61 51.62 88.61 50.71L88.61 50.71L81.86 54.32L81.86 54.32Q81.70 54.22 81.38 54.03L81.38 54.03L81.38 54.03Q81.05 53.84 80.27 53.22L80.27 53.22L80.27 53.22Q79.49 52.60 78.89 51.89L78.89 51.89L78.89 51.89Q77.27 50.11 77.27 47.84L77.27 47.84L77.27 38.99L77.27 38.99Q77.27 38.12 80.08 36.77L80.08 36.77L80.08 36.77Q82.89 35.42 85.70 34.56L85.70 34.56L88.56 33.64L88.56 33.64Q88.56 30.56 86.94 29.35L86.94 29.35L86.94 29.35Q85.32 28.13 80.68 28.13L80.68 28.13L80.68 26.51L80.68 26.51Q89.05 23.54 90.07 23.54L90.07 23.54L90.07 23.54Q91.85 23.54 93.47 25.87L93.47 25.87L93.47 25.87Q95.09 28.19 95.09 30.67ZM83.75 45.90L83.75 45.90Q83.75 47.30 84.59 48.20L84.59 48.20L84.59 48.20Q85.43 49.09 86.45 49.09L86.45 49.09L86.45 49.09Q87.48 49.09 88.61 48.28L88.61 48.28L88.61 36.07L88.61 36.07Q87.26 36.56 86.59 36.88L86.59 36.88L86.59 36.88Q85.91 37.21 85.16 37.91L85.16 37.91L85.16 37.91Q83.75 39.20 83.75 42.39L83.75 42.39L83.75 45.90ZM104.98 49.03L109.24 49.03L109.24 49.03Q112.54 49.03 112.97 47.25L112.97 47.25L114.16 47.25L117.23 51.68L117.23 51.68Q116.59 52.70 115.56 53.51L115.56 53.51L115.56 53.51Q114.53 54.32 113.56 54.32L113.56 54.32L99.41 54.32L99.41 54.32Q98.33 51.03 98.33 49.19L98.33 49.19L111.02 29.32L106.33 29.32L106.33 29.32Q103.03 29.32 102.60 31.10L102.60 31.10L101.41 31.10L98.33 26.68L98.33 26.68Q98.98 25.65 100.01 24.84L100.01 24.84L100.01 24.84Q101.03 24.03 102.01 24.03L102.01 24.03L109.24 24.03L109.24 24.03Q112.54 24.03 112.97 22.25L112.97 22.25L114.16 22.25L114.16 22.25Q114.91 23.27 116.07 26.00L116.07 26.00L116.07 26.00Q117.23 28.73 117.23 29.27L117.23 29.27L104.98 49.03ZM137.21 30.67L137.21 30.67L137.21 45.95L137.21 45.95Q137.21 47.95 137.86 48.73L137.86 48.73L137.86 48.73Q138.51 49.52 139.86 49.84L139.86 49.84L139.86 51.03L133.97 54.32L133.97 54.32Q132.79 53.84 131.76 52.73L131.76 52.73L131.76 52.73Q130.73 51.62 130.73 50.71L130.73 50.71L123.98 54.32L123.98 54.32Q123.82 54.22 123.50 54.03L123.50 54.03L123.50 54.03Q123.17 53.84 122.39 53.22L122.39 53.22L122.39 53.22Q121.61 52.60 121.01 51.89L121.01 51.89L121.01 51.89Q119.39 50.11 119.39 47.84L119.39 47.84L119.39 38.99L119.39 38.99Q119.39 38.12 122.20 36.77L122.20 36.77L122.20 36.77Q125.01 35.42 127.82 34.56L127.82 34.56L130.68 33.64L130.68 33.64Q130.68 30.56 129.06 29.35L129.06 29.35L129.06 29.35Q127.44 28.13 122.80 28.13L122.80 28.13L122.80 26.51L122.80 26.51Q131.17 23.54 132.19 23.54L132.19 23.54L132.19 23.54Q133.97 23.54 135.59 25.87L135.59 25.87L135.59 25.87Q137.21 28.19 137.21 30.67ZM125.87 45.90L125.87 45.90Q125.87 47.30 126.71 48.20L126.71 48.20L126.71 48.20Q127.55 49.09 128.57 49.09L128.57 49.09L128.57 49.09Q129.60 49.09 130.73 48.28L130.73 48.28L130.73 36.07L130.73 36.07Q129.38 36.56 128.71 36.88L128.71 36.88L128.71 36.88Q128.03 37.21 127.28 37.91L127.28 37.91L127.28 37.91Q125.87 39.20 125.87 42.39L125.87 42.39L125.87 45.90Z" transform="rotate(0 69.65999692678452 34.39499855041504)"></path><defs id="SvgjsDefs1018"></defs></svg></g><g id="SvgjsG1021" transform="rotate(0 74.1015625 85.9375)"><svg xmlns="http://www.w3.org/2000/svg" xmlns:xlink="http://www.w3.org/1999/xlink" width="148.203125" viewBox="0.8100000023841858 2.6700000762939453 148.2100067138672 11.390000343322754" overflow="visible" style="overflow: visible;" transform="" version="1.1" xmlns:svgjs="http://svgjs.com/svgjs" preserveAspectRatio="none" height="11.375" x="0" y="80.25" fill="#000000" stroke="none"><path stroke="none" fill="#2c365d" d="M5.13 13.92L0.81 13.92L0.81 3.25L4.64 3.25L4.64 3.25Q6.69 3.25 7.77 4.01L7.77 4.01L7.77 4.01Q8.84 4.76 8.84 6.20L8.84 6.20L8.84 6.20Q8.84 7.02 8.46 7.61L8.46 7.61L8.46 7.61Q8.08 8.20 7.34 8.47L7.34 8.47L7.34 8.47Q8.17 8.69 8.62 9.29L8.62 9.29L8.62 9.29Q9.07 9.90 9.07 10.76L9.07 10.76L9.07 10.76Q9.07 12.33 8.07 13.11L8.07 13.11L8.07 13.11Q7.08 13.90 5.13 13.92L5.13 13.92ZM5.18 9.38L3.38 9.38L3.38 11.94L5.06 11.94L5.06 11.94Q5.76 11.94 6.13 11.62L6.13 11.62L6.13 11.62Q6.50 11.30 6.50 10.72L6.50 10.72L6.50 10.72Q6.50 9.39 5.18 9.38L5.18 9.38ZM3.38 5.24L3.38 7.70L4.72 7.70L4.72 7.70Q5.56 7.69 5.92 7.39L5.92 7.39L5.92 7.39Q6.28 7.09 6.28 6.50L6.28 6.50L6.28 6.50Q6.28 5.83 5.89 5.53L5.89 5.53L5.89 5.53Q5.50 5.24 4.64 5.24L4.64 5.24L3.38 5.24ZM15.20 14.06L15.20 14.06L15.20 14.06Q13.38 14.06 12.25 12.97L12.25 12.97L12.25 12.97Q11.12 11.89 11.12 10.14L11.12 10.14L11.12 9.94L11.12 9.94Q11.12 8.72 11.57 7.79L11.57 7.79L11.57 7.79Q12.02 6.86 12.89 6.35L12.89 6.35L12.89 6.35Q13.75 5.84 14.94 5.84L14.94 5.84L14.94 5.84Q16.61 5.84 17.57 6.88L17.57 6.88L17.57 6.88Q18.54 7.92 18.54 9.77L18.54 9.77L18.54 10.73L13.63 10.73L13.63 10.73Q13.77 11.40 14.21 11.78L14.21 11.78L14.21 11.78Q14.66 12.16 15.37 12.16L15.37 12.16L15.37 12.16Q16.54 12.16 17.20 11.34L17.20 11.34L18.33 12.67L18.33 12.67Q17.87 13.31 17.02 13.69L17.02 13.69L17.02 13.69Q16.18 14.06 15.20 14.06ZM14.92 7.75L14.92 7.75L14.92 7.75Q13.84 7.75 13.63 9.18L13.63 9.18L16.12 9.18L16.12 8.99L16.12 8.99Q16.14 8.40 15.82 8.07L15.82 8.07L15.82 8.07Q15.51 7.75 14.92 7.75ZM20.94 4.02L23.41 4.02L23.41 5.99L24.71 5.99L24.71 7.71L23.41 7.71L23.41 11.33L23.41 11.33Q23.41 11.78 23.57 11.95L23.57 11.95L23.57 11.95Q23.73 12.13 24.21 12.13L24.21 12.13L24.21 12.13Q24.57 12.13 24.82 12.08L24.82 12.08L24.82 13.85L24.82 13.85Q24.16 14.06 23.43 14.06L23.43 14.06L23.43 14.06Q22.16 14.06 21.55 13.46L21.55 13.46L21.55 13.46Q20.94 12.86 20.94 11.64L20.94 11.64L20.94 7.71L19.93 7.71L19.93 5.99L20.94 5.99L20.94 4.02ZM27.09 4.02L29.56 4.02L29.56 5.99L30.86 5.99L30.86 7.71L29.56 7.71L29.56 11.33L29.56 11.33Q29.56 11.78 29.72 11.95L29.72 11.95L29.72 11.95Q29.88 12.13 30.36 12.13L30.36 12.13L30.36 12.13Q30.72 12.13 30.97 12.08L30.97 12.08L30.97 13.85L30.97 13.85Q30.30 14.06 29.58 14.06L29.58 14.06L29.58 14.06Q28.31 14.06 27.70 13.46L27.70 13.46L27.70 13.46Q27.09 12.86 27.09 11.64L27.09 11.64L27.09 7.71L26.08 7.71L26.08 5.99L27.09 5.99L27.09 4.02ZM36.67 14.06L36.67 14.06L36.67 14.06Q34.84 14.06 33.71 12.97L33.71 12.97L33.71 12.97Q32.59 11.89 32.59 10.14L32.59 10.14L32.59 9.94L32.59 9.94Q32.59 8.72 33.04 7.79L33.04 7.79L33.04 7.79Q33.49 6.86 34.35 6.35L34.35 6.35L34.35 6.35Q35.22 5.84 36.40 5.84L36.40 5.84L36.40 5.84Q38.07 5.84 39.04 6.88L39.04 6.88L39.04 6.88Q40.01 7.92 40.01 9.77L40.01 9.77L40.01 10.73L35.10 10.73L35.10 10.73Q35.23 11.40 35.68 11.78L35.68 11.78L35.68 11.78Q36.12 12.16 36.83 12.16L36.83 12.16L36.83 12.16Q38.01 12.16 38.67 11.34L38.67 11.34L39.79 12.67L39.79 12.67Q39.33 13.31 38.49 13.69L38.49 13.69L38.49 13.69Q37.64 14.06 36.67 14.06ZM36.39 7.75L36.39 7.75L36.39 7.75Q35.30 7.75 35.10 9.18L35.10 9.18L37.59 9.18L37.59 8.99L37.59 8.99Q37.60 8.40 37.29 8.07L37.29 8.07L37.29 8.07Q36.97 7.75 36.39 7.75ZM46.84 5.93L46.79 8.23L45.98 8.17L45.98 8.17Q44.81 8.17 44.48 8.90L44.48 8.90L44.48 13.92L42.02 13.92L42.02 5.99L44.33 5.99L44.41 7.01L44.41 7.01Q45.03 5.84 46.15 5.84L46.15 5.84L46.15 5.84Q46.54 5.84 46.84 5.93L46.84 5.93ZM48.94 11.52L48.94 11.52L48.94 11.52Q49.53 11.52 49.92 11.87L49.92 11.87L49.92 11.87Q50.30 12.22 50.30 12.76L50.30 12.76L50.30 12.76Q50.30 13.30 49.92 13.65L49.92 13.65L49.92 13.65Q49.53 14.00 48.94 14.00L48.94 14.00L48.94 14.00Q48.35 14.00 47.96 13.65L47.96 13.65L47.96 13.65Q47.58 13.29 47.58 12.76L47.58 12.76L47.58 12.76Q47.58 12.22 47.96 11.87L47.96 11.87L47.96 11.87Q48.35 11.52 48.94 11.52ZM66.53 8.22L66.53 12.60L66.53 12.60Q65.93 13.26 64.79 13.66L64.79 13.66L64.79 13.66Q63.65 14.06 62.29 14.06L62.29 14.06L62.29 14.06Q60.19 14.06 58.94 12.78L58.94 12.78L58.94 12.78Q57.69 11.50 57.60 9.21L57.60 9.21L57.59 8.29L57.59 8.29Q57.59 6.72 58.15 5.54L58.15 5.54L58.15 5.54Q58.71 4.37 59.74 3.73L59.74 3.73L59.74 3.73Q60.78 3.10 62.14 3.10L62.14 3.10L62.14 3.10Q64.13 3.10 65.24 4.01L65.24 4.01L65.24 4.01Q66.34 4.92 66.52 6.73L66.52 6.73L64.04 6.73L64.04 6.73Q63.91 5.84 63.47 5.46L63.47 5.46L63.47 5.46Q63.03 5.08 62.23 5.08L62.23 5.08L62.23 5.08Q61.26 5.08 60.73 5.90L60.73 5.90L60.73 5.90Q60.21 6.72 60.20 8.24L60.20 8.24L60.20 8.88L60.20 8.88Q60.20 10.48 60.75 11.28L60.75 11.28L60.75 11.28Q61.29 12.08 62.46 12.08L62.46 12.08L62.46 12.08Q63.47 12.08 63.96 11.64L63.96 11.64L63.96 9.98L62.17 9.98L62.17 8.22L66.53 8.22ZM73.70 13.92L73.63 13.06L73.63 13.06Q72.85 14.06 71.51 14.06L71.51 14.06L71.51 14.06Q70.21 14.06 69.54 13.30L69.54 13.30L69.54 13.30Q68.87 12.55 68.87 11.13L68.87 11.13L68.87 5.99L71.34 5.99L71.34 11.14L71.34 11.14Q71.34 12.16 72.33 12.16L72.33 12.16L72.33 12.16Q73.17 12.16 73.53 11.55L73.53 11.55L73.53 5.99L76.02 5.99L76.02 13.92L73.70 13.92ZM85.30 13.92L82.83 13.92L82.83 13.92Q82.70 13.67 82.60 13.21L82.60 13.21L82.60 13.21Q81.92 14.06 80.69 14.06L80.69 14.06L80.69 14.06Q79.57 14.06 78.79 13.39L78.79 13.39L78.79 13.39Q78.01 12.71 78.01 11.68L78.01 11.68L78.01 11.68Q78.01 10.39 78.96 9.73L78.96 9.73L78.96 9.73Q79.91 9.07 81.73 9.07L81.73 9.07L82.49 9.07L82.49 8.66L82.49 8.66Q82.49 7.57 81.54 7.57L81.54 7.57L81.54 7.57Q80.66 7.57 80.66 8.43L80.66 8.43L78.20 8.43L78.20 8.43Q78.20 7.28 79.17 6.56L79.17 6.56L79.17 6.56Q80.15 5.84 81.67 5.84L81.67 5.84L81.67 5.84Q83.18 5.84 84.06 6.58L84.06 6.58L84.06 6.58Q84.94 7.32 84.96 8.61L84.96 8.61L84.96 12.12L84.96 12.12Q84.98 13.21 85.30 13.79L85.30 13.79L85.30 13.92ZM81.29 12.30L81.29 12.30L81.29 12.30Q81.75 12.30 82.05 12.11L82.05 12.11L82.05 12.11Q82.36 11.91 82.49 11.66L82.49 11.66L82.49 10.39L81.77 10.39L81.77 10.39Q80.48 10.39 80.48 11.55L80.48 11.55L80.48 11.55Q80.48 11.89 80.71 12.10L80.71 12.10L80.71 12.10Q80.94 12.30 81.29 12.30ZM92.17 5.93L92.12 8.23L91.31 8.17L91.31 8.17Q90.15 8.17 89.82 8.90L89.82 8.90L89.82 13.92L87.35 13.92L87.35 5.99L89.66 5.99L89.74 7.01L89.74 7.01Q90.37 5.84 91.48 5.84L91.48 5.84L91.48 5.84Q91.87 5.84 92.17 5.93L92.17 5.93ZM100.73 13.92L98.26 13.92L98.26 13.92Q98.13 13.67 98.02 13.21L98.02 13.21L98.02 13.21Q97.34 14.06 96.12 14.06L96.12 14.06L96.12 14.06Q95.00 14.06 94.21 13.39L94.21 13.39L94.21 13.39Q93.43 12.71 93.43 11.68L93.43 11.68L93.43 11.68Q93.43 10.39 94.38 9.73L94.38 9.73L94.38 9.73Q95.33 9.07 97.15 9.07L97.15 9.07L97.91 9.07L97.91 8.66L97.91 8.66Q97.91 7.57 96.97 7.57L96.97 7.57L96.97 7.57Q96.09 7.57 96.09 8.43L96.09 8.43L93.62 8.43L93.62 8.43Q93.62 7.28 94.60 6.56L94.60 6.56L94.60 6.56Q95.58 5.84 97.09 5.84L97.09 5.84L97.09 5.84Q98.61 5.84 99.49 6.58L99.49 6.58L99.49 6.58Q100.37 7.32 100.39 8.61L100.39 8.61L100.39 12.12L100.39 12.12Q100.40 13.21 100.73 13.79L100.73 13.79L100.73 13.92ZM96.71 12.30L96.71 12.30L96.71 12.30Q97.17 12.30 97.48 12.11L97.48 12.11L97.48 12.11Q97.78 11.91 97.91 11.66L97.91 11.66L97.91 10.39L97.20 10.39L97.20 10.39Q95.91 10.39 95.91 11.55L95.91 11.55L95.91 11.55Q95.91 11.89 96.13 12.10L96.13 12.10L96.13 12.10Q96.36 12.30 96.71 12.30ZM102.71 5.99L105.02 5.99L105.10 6.92L105.10 6.92Q105.92 5.84 107.37 5.84L107.37 5.84L107.37 5.84Q108.60 5.84 109.21 6.58L109.21 6.58L109.21 6.58Q109.83 7.32 109.85 8.81L109.85 8.81L109.85 13.92L107.37 13.92L107.37 8.91L107.37 8.91Q107.37 8.31 107.13 8.03L107.13 8.03L107.13 8.03Q106.89 7.75 106.25 7.75L106.25 7.75L106.25 7.75Q105.53 7.75 105.18 8.32L105.18 8.32L105.18 13.92L102.71 13.92L102.71 5.99ZM112.62 4.02L115.09 4.02L115.09 5.99L116.39 5.99L116.39 7.71L115.09 7.71L115.09 11.33L115.09 11.33Q115.09 11.78 115.25 11.95L115.25 11.95L115.25 11.95Q115.41 12.13 115.89 12.13L115.89 12.13L115.89 12.13Q116.25 12.13 116.50 12.08L116.50 12.08L116.50 13.85L116.50 13.85Q115.84 14.06 115.11 14.06L115.11 14.06L115.11 14.06Q113.84 14.06 113.23 13.46L113.23 13.46L113.23 13.46Q112.62 12.86 112.62 11.64L112.62 11.64L112.62 7.71L111.61 7.71L111.61 5.99L112.62 5.99L112.62 4.02ZM122.20 14.06L122.20 14.06L122.20 14.06Q120.37 14.06 119.25 12.97L119.25 12.97L119.25 12.97Q118.12 11.89 118.12 10.14L118.12 10.14L118.12 9.94L118.12 9.94Q118.12 8.72 118.57 7.79L118.57 7.79L118.57 7.79Q119.02 6.86 119.88 6.35L119.88 6.35L119.88 6.35Q120.75 5.84 121.93 5.84L121.93 5.84L121.93 5.84Q123.60 5.84 124.57 6.88L124.57 6.88L124.57 6.88Q125.54 7.92 125.54 9.77L125.54 9.77L125.54 10.73L120.63 10.73L120.63 10.73Q120.76 11.40 121.21 11.78L121.21 11.78L121.21 11.78Q121.66 12.16 122.37 12.16L122.37 12.16L122.37 12.16Q123.54 12.16 124.20 11.34L124.20 11.34L125.32 12.67L125.32 12.67Q124.86 13.31 124.02 13.69L124.02 13.69L124.02 13.69Q123.17 14.06 122.20 14.06ZM121.92 7.75L121.92 7.75L121.92 7.75Q120.83 7.75 120.63 9.18L120.63 9.18L123.12 9.18L123.12 8.99L123.12 8.99Q123.13 8.40 122.82 8.07L122.82 8.07L122.82 8.07Q122.50 7.75 121.92 7.75ZM131.36 14.06L131.36 14.06L131.36 14.06Q129.54 14.06 128.41 12.97L128.41 12.97L128.41 12.97Q127.28 11.89 127.28 10.14L127.28 10.14L127.28 9.94L127.28 9.94Q127.28 8.72 127.73 7.79L127.73 7.79L127.73 7.79Q128.19 6.86 129.05 6.35L129.05 6.35L129.05 6.35Q129.91 5.84 131.10 5.84L131.10 5.84L131.10 5.84Q132.77 5.84 133.74 6.88L133.74 6.88L133.74 6.88Q134.70 7.92 134.70 9.77L134.70 9.77L134.70 10.73L129.80 10.73L129.80 10.73Q129.93 11.40 130.38 11.78L130.38 11.78L130.38 11.78Q130.82 12.16 131.53 12.16L131.53 12.16L131.53 12.16Q132.70 12.16 133.36 11.34L133.36 11.34L134.49 12.67L134.49 12.67Q134.03 13.31 133.18 13.69L133.18 13.69L133.18 13.69Q132.34 14.06 131.36 14.06ZM131.09 7.75L131.09 7.75L131.09 7.75Q130.00 7.75 129.80 9.18L129.80 9.18L132.29 9.18L132.29 8.99L132.29 8.99Q132.30 8.40 131.99 8.07L131.99 8.07L131.99 8.07Q131.67 7.75 131.09 7.75ZM136.38 9.90L136.38 9.90L136.38 9.90Q136.38 8.01 137.20 6.93L137.20 6.93L137.20 6.93Q138.01 5.84 139.47 5.84L139.47 5.84L139.47 5.84Q140.53 5.84 141.26 6.68L141.26 6.68L141.26 2.67L143.73 2.67L143.73 13.92L141.51 13.92L141.39 13.07L141.39 13.07Q140.63 14.06 139.45 14.06L139.45 14.06L139.45 14.06Q138.04 14.06 137.21 12.98L137.21 12.98L137.21 12.98Q136.38 11.89 136.38 9.90ZM138.86 9.59L138.85 10.05L138.85 10.05Q138.85 12.16 140.08 12.16L140.08 12.16L140.08 12.16Q140.90 12.16 141.26 11.47L141.26 11.47L141.26 8.45L141.26 8.45Q140.92 7.75 140.10 7.75L140.10 7.75L140.10 7.75Q138.96 7.75 138.86 9.59L138.86 9.59ZM147.66 11.52L147.66 11.52L147.66 11.52Q148.25 11.52 148.63 11.87L148.63 11.87L148.63 11.87Q149.02 12.22 149.02 12.76L149.02 12.76L149.02 12.76Q149.02 13.30 148.63 13.65L148.63 13.65L148.63 13.65Q148.25 14.00 147.66 14.00L147.66 14.00L147.66 14.00Q147.07 14.00 146.68 13.65L146.68 13.65L146.68 13.65Q146.30 13.29 146.30 12.76L146.30 12.76L146.30 12.76Q146.30 12.22 146.68 11.87L146.68 11.87L146.68 11.87Q147.07 11.52 147.66 11.52Z" transform="rotate(0 74.91500335931778 8.365000247955322)"></path><defs id="SvgjsDefs1020"></defs></svg></g></svg>